<svg xmlns="http://www.w3.org/2000/svg" width="424" height="108" viewBox="0 0 424 108">
  <defs><clipPath id="p"><path d="M 0 7.77 L 14 1.42 L 28 4.1 L 42 4.67 L 56 5.32 L 70 -1.41 L 84 7.34 L 98 4.75 L 112 5.36 L 126 0.03 L 140 7.95 L 154 -0.35 L 168 -0.01 L 182 -0.83 L 196 7.71 L 210 0.47 L 224 4.65 L 238 4.78 L 252 0.72 L 266 -0.34 L 280 -0.87 L 294 3 L 308 1.44 L 322 2.01 L 336 6.54 L 350 3.25 L 364 3.65 L 378 4.61 L 392 4.32 L 406 -2.69 L 420 5.44 L 424 0.91 L 424 106.99 L 420 105.53 L 406 105.51 L 392 100.8 L 378 105.92 L 364 103.07 L 350 106.1 L 336 107.54 L 322 109.6 L 308 101.12 L 294 109.64 L 280 100.36 L 266 103.12 L 252 105.47 L 238 110.59 L 224 105.35 L 210 103.28 L 196 106.56 L 182 107.07 L 168 105.32 L 154 105.51 L 140 101.51 L 126 110.83 L 112 100.69 L 98 105.93 L 84 104.08 L 70 109.34 L 56 104.57 L 42 111.3 L 28 106.73 L 14 105.7 L 0 107.76 Z"/></clipPath></defs>
  <path d="M 0 7.77 L 14 1.42 L 28 4.1 L 42 4.67 L 56 5.32 L 70 -1.41 L 84 7.34 L 98 4.75 L 112 5.36 L 126 0.03 L 140 7.95 L 154 -0.35 L 168 -0.01 L 182 -0.83 L 196 7.71 L 210 0.47 L 224 4.65 L 238 4.78 L 252 0.72 L 266 -0.34 L 280 -0.87 L 294 3 L 308 1.44 L 322 2.01 L 336 6.54 L 350 3.25 L 364 3.65 L 378 4.61 L 392 4.32 L 406 -2.69 L 420 5.44 L 424 0.91 L 424 106.99 L 420 105.53 L 406 105.51 L 392 100.8 L 378 105.92 L 364 103.07 L 350 106.1 L 336 107.54 L 322 109.6 L 308 101.12 L 294 109.64 L 280 100.36 L 266 103.12 L 252 105.47 L 238 110.59 L 224 105.35 L 210 103.28 L 196 106.56 L 182 107.07 L 168 105.32 L 154 105.51 L 140 101.51 L 126 110.83 L 112 100.69 L 98 105.93 L 84 104.08 L 70 109.34 L 56 104.57 L 42 111.3 L 28 106.73 L 14 105.7 L 0 107.76 Z" fill="#F3F1EC"/>
  <g clip-path="url(#p)" opacity=".06"><rect x="409.5" y="13.4" width="18.1" height="1" fill="#fff"/><rect x="346.2" y="29.2" width="14.2" height="1" fill="#000"/><rect x="105.3" y="50.8" width="14.5" height="1" fill="#fff"/><rect x="287.4" y="15.1" width="6.2" height="1" fill="#000"/><rect x="221.2" y="75.1" width="20.4" height="1" fill="#fff"/><rect x="83.3" y="59.9" width="0.4" height="1" fill="#000"/><rect x="50.5" y="14.5" width="21.3" height="1" fill="#fff"/><rect x="299.4" y="91.8" width="4.2" height="1" fill="#000"/><rect x="158.5" y="12.8" width="2.4" height="1" fill="#fff"/><rect x="228.8" y="38.6" width="2.9" height="1" fill="#000"/><rect x="262.7" y="106.2" width="15.0" height="1" fill="#fff"/><rect x="12.9" y="44.5" width="3.9" height="1" fill="#000"/><rect x="80.2" y="6.5" width="0.6" height="1" fill="#fff"/><rect x="217.1" y="37.3" width="14.4" height="1" fill="#000"/><rect x="176.4" y="73.9" width="10.4" height="1" fill="#fff"/><rect x="134.8" y="53.2" width="19.8" height="1" fill="#000"/><rect x="268.8" y="20.2" width="7.8" height="1" fill="#fff"/><rect x="331.1" y="20.0" width="5.5" height="1" fill="#000"/><rect x="74.5" y="97.6" width="0.1" height="1" fill="#fff"/><rect x="99.6" y="81.9" width="0.8" height="1" fill="#000"/><rect x="159.0" y="17.9" width="16.6" height="1" fill="#fff"/><rect x="5.4" y="58.7" width="12.9" height="1" fill="#000"/><rect x="239.6" y="33.3" width="20.7" height="1" fill="#fff"/><rect x="190.0" y="94.6" width="5.3" height="1" fill="#000"/><rect x="33.5" y="71.6" width="19.8" height="1" fill="#fff"/><rect x="370.7" y="9.4" width="7.3" height="1" fill="#000"/><rect x="106.2" y="61.0" width="21.0" height="1" fill="#fff"/><rect x="264.8" y="55.3" width="4.2" height="1" fill="#000"/><rect x="175.0" y="37.3" width="9.9" height="1" fill="#fff"/><rect x="13.6" y="52.1" width="3.3" height="1" fill="#000"/><rect x="381.2" y="36.7" width="15.6" height="1" fill="#fff"/><rect x="182.5" y="36.0" width="12.0" height="1" fill="#000"/><rect x="18.1" y="95.1" width="1.6" height="1" fill="#fff"/><rect x="64.8" y="42.9" width="15.6" height="1" fill="#000"/><rect x="75.1" y="32.4" width="19.1" height="1" fill="#fff"/><rect x="225.8" y="0.7" width="21.4" height="1" fill="#000"/><rect x="269.5" y="100.8" width="9.6" height="1" fill="#fff"/><rect x="382.9" y="53.6" width="14.8" height="1" fill="#000"/><rect x="318.7" y="12.1" width="2.3" height="1" fill="#fff"/><rect x="253.5" y="21.4" width="3.2" height="1" fill="#000"/><rect x="363.9" y="18.5" width="4.6" height="1" fill="#fff"/><rect x="402.7" y="48.3" width="15.7" height="1" fill="#000"/><rect x="122.5" y="47.8" width="1.8" height="1" fill="#fff"/><rect x="124.1" y="62.1" width="15.9" height="1" fill="#000"/><rect x="159.9" y="28.2" width="1.2" height="1" fill="#fff"/><rect x="406.8" y="99.0" width="10.9" height="1" fill="#000"/><rect x="193.4" y="103.5" width="10.2" height="1" fill="#fff"/><rect x="120.3" y="86.8" width="8.2" height="1" fill="#000"/><rect x="364.2" y="93.9" width="14.1" height="1" fill="#fff"/><rect x="253.8" y="61.7" width="15.1" height="1" fill="#000"/><rect x="389.8" y="35.2" width="20.3" height="1" fill="#fff"/><rect x="100.8" y="59.5" width="16.8" height="1" fill="#000"/><rect x="411.5" y="71.6" width="14.0" height="1" fill="#fff"/><rect x="226.5" y="8.4" width="20.9" height="1" fill="#000"/><rect x="146.6" y="22.9" width="2.6" height="1" fill="#fff"/><rect x="348.3" y="52.2" width="12.4" height="1" fill="#000"/><rect x="160.4" y="33.3" width="15.5" height="1" fill="#fff"/><rect x="183.5" y="11.1" width="20.9" height="1" fill="#000"/><rect x="170.3" y="30.6" width="15.9" height="1" fill="#fff"/><rect x="297.4" y="28.9" width="9.7" height="1" fill="#000"/><rect x="317.6" y="51.0" width="11.3" height="1" fill="#fff"/><rect x="407.4" y="33.8" width="8.0" height="1" fill="#000"/><rect x="319.6" y="22.3" width="8.9" height="1" fill="#fff"/><rect x="230.8" y="61.6" width="1.2" height="1" fill="#000"/><rect x="317.7" y="88.7" width="16.0" height="1" fill="#fff"/><rect x="333.0" y="40.5" width="18.6" height="1" fill="#000"/><rect x="29.2" y="70.0" width="18.1" height="1" fill="#fff"/><rect x="7.2" y="6.4" width="1.7" height="1" fill="#000"/><rect x="19.5" y="2.4" width="0.4" height="1" fill="#fff"/><rect x="242.8" y="103.2" width="1.6" height="1" fill="#000"/><rect x="5.8" y="29.8" width="14.3" height="1" fill="#fff"/><rect x="333.2" y="43.1" width="3.8" height="1" fill="#000"/><rect x="129.6" y="80.1" width="1.1" height="1" fill="#fff"/><rect x="419.6" y="77.9" width="15.5" height="1" fill="#000"/><rect x="108.1" y="81.5" width="12.2" height="1" fill="#fff"/><rect x="219.5" y="27.8" width="0.2" height="1" fill="#000"/><rect x="82.6" y="69.8" width="10.8" height="1" fill="#fff"/><rect x="298.1" y="36.6" width="9.1" height="1" fill="#000"/><rect x="194.6" y="81.2" width="4.3" height="1" fill="#fff"/><rect x="372.8" y="32.5" width="5.6" height="1" fill="#000"/><rect x="161.3" y="43.5" width="0.1" height="1" fill="#fff"/><rect x="160.8" y="51.3" width="18.9" height="1" fill="#000"/><rect x="124.1" y="100.9" width="5.4" height="1" fill="#fff"/><rect x="227.7" y="21.2" width="12.6" height="1" fill="#000"/><rect x="224.3" y="73.2" width="5.6" height="1" fill="#fff"/><rect x="290.5" y="86.0" width="15.8" height="1" fill="#000"/><rect x="179.2" y="104.6" width="8.1" height="1" fill="#fff"/><rect x="66.8" y="65.9" width="13.9" height="1" fill="#000"/><rect x="130.2" y="14.9" width="20.2" height="1" fill="#fff"/><rect x="121.9" y="104.7" width="14.2" height="1" fill="#000"/><rect x="218.6" y="56.3" width="5.1" height="1" fill="#fff"/><rect x="173.0" y="22.6" width="2.1" height="1" fill="#000"/><rect x="161.8" y="48.6" width="14.3" height="1" fill="#fff"/><rect x="361.5" y="71.4" width="6.9" height="1" fill="#000"/><rect x="101.0" y="28.0" width="11.1" height="1" fill="#fff"/><rect x="404.8" y="71.3" width="14.0" height="1" fill="#000"/><rect x="177.6" y="30.3" width="2.8" height="1" fill="#fff"/><rect x="20.1" y="58.1" width="8.7" height="1" fill="#000"/><rect x="109.0" y="91.7" width="18.7" height="1" fill="#fff"/><rect x="196.9" y="68.0" width="20.2" height="1" fill="#000"/><rect x="36.4" y="32.0" width="0.2" height="1" fill="#fff"/><rect x="228.3" y="28.8" width="12.0" height="1" fill="#000"/><rect x="101.3" y="103.4" width="20.6" height="1" fill="#fff"/><rect x="255.9" y="84.7" width="13.3" height="1" fill="#000"/><rect x="20.9" y="17.8" width="21.3" height="1" fill="#fff"/><rect x="420.9" y="55.6" width="9.6" height="1" fill="#000"/><rect x="360.5" y="27.1" width="9.5" height="1" fill="#fff"/><rect x="16.6" y="85.4" width="8.1" height="1" fill="#000"/><rect x="413.6" y="59.5" width="14.6" height="1" fill="#fff"/><rect x="32.4" y="102.3" width="16.2" height="1" fill="#000"/><rect x="321.4" y="42.8" width="0.0" height="1" fill="#fff"/><rect x="185.5" y="34.1" width="19.2" height="1" fill="#000"/><rect x="225.3" y="13.2" width="17.0" height="1" fill="#fff"/><rect x="193.5" y="25.0" width="2.4" height="1" fill="#000"/><rect x="266.6" y="6.5" width="6.8" height="1" fill="#fff"/><rect x="197.5" y="2.8" width="17.2" height="1" fill="#000"/><rect x="162.7" y="58.9" width="20.9" height="1" fill="#fff"/><rect x="338.9" y="3.7" width="5.0" height="1" fill="#000"/><rect x="54.8" y="98.2" width="0.6" height="1" fill="#fff"/><rect x="335.0" y="63.5" width="16.9" height="1" fill="#000"/><rect x="84.3" y="52.6" width="19.1" height="1" fill="#fff"/><rect x="327.3" y="2.4" width="16.4" height="1" fill="#000"/><rect x="392.6" y="65.9" width="18.0" height="1" fill="#fff"/><rect x="32.9" y="72.2" width="10.9" height="1" fill="#000"/><rect x="272.9" y="66.3" width="4.3" height="1" fill="#fff"/><rect x="17.3" y="93.1" width="7.6" height="1" fill="#000"/><rect x="290.6" y="89.6" width="7.6" height="1" fill="#fff"/><rect x="421.7" y="100.9" width="13.8" height="1" fill="#000"/><rect x="163.1" y="64.0" width="13.2" height="1" fill="#fff"/><rect x="115.6" y="23.8" width="15.0" height="1" fill="#000"/><rect x="31.7" y="25.3" width="6.3" height="1" fill="#fff"/><rect x="88.2" y="5.6" width="18.4" height="1" fill="#000"/><rect x="37.6" y="9.7" width="16.3" height="1" fill="#fff"/><rect x="56.8" y="82.5" width="9.3" height="1" fill="#000"/><rect x="322.4" y="53.0" width="6.6" height="1" fill="#fff"/><rect x="162.9" y="74.3" width="17.2" height="1" fill="#000"/><rect x="179.1" y="83.4" width="6.4" height="1" fill="#fff"/><rect x="123.7" y="17.2" width="5.3" height="1" fill="#000"/><rect x="173.3" y="28.7" width="1.2" height="1" fill="#fff"/><rect x="80.6" y="55.0" width="3.0" height="1" fill="#000"/><rect x="22.3" y="33.1" width="20.1" height="1" fill="#fff"/><rect x="174.9" y="7.9" width="17.6" height="1" fill="#000"/><rect x="291.3" y="24.5" width="4.7" height="1" fill="#fff"/><rect x="123.9" y="19.8" width="12.5" height="1" fill="#000"/><rect x="273.7" y="38.8" width="6.2" height="1" fill="#fff"/><rect x="69.1" y="18.6" width="16.9" height="1" fill="#000"/><rect x="110.8" y="4.2" width="9.9" height="1" fill="#fff"/><rect x="151.6" y="40.5" width="16.2" height="1" fill="#000"/><rect x="368.0" y="64.5" width="1.1" height="1" fill="#fff"/><rect x="88.8" y="13.3" width="17.8" height="1" fill="#000"/><rect x="338.7" y="39.9" width="9.3" height="1" fill="#fff"/><rect x="22.2" y="81.2" width="6.9" height="1" fill="#000"/><rect x="164.0" y="74.2" width="19.8" height="1" fill="#fff"/><rect x="92.9" y="64.0" width="13.0" height="1" fill="#000"/><rect x="409.5" y="95.6" width="17.8" height="1" fill="#fff"/><rect x="18.4" y="105.9" width="21.3" height="1" fill="#000"/><rect x="368.3" y="31.9" width="10.7" height="1" fill="#fff"/><rect x="364.0" y="26.7" width="17.1" height="1" fill="#000"/><rect x="181.9" y="27.3" width="5.8" height="1" fill="#fff"/><rect x="422.9" y="78.6" width="7.9" height="1" fill="#000"/><rect x="415.6" y="9.6" width="10.5" height="1" fill="#fff"/><rect x="336.6" y="81.4" width="0.9" height="1" fill="#000"/><rect x="362.7" y="15.0" width="10.2" height="1" fill="#fff"/><rect x="246.4" y="71.3" width="3.5" height="1" fill="#000"/><rect x="164.5" y="79.3" width="12.0" height="1" fill="#fff"/><rect x="293.6" y="84.1" width="1.0" height="1" fill="#000"/><rect x="386.4" y="22.7" width="1.5" height="1" fill="#fff"/><rect x="195.5" y="48.0" width="0.7" height="1" fill="#000"/><rect x="321.7" y="97.0" width="7.8" height="1" fill="#fff"/><rect x="93.5" y="106.8" width="10.0" height="1" fill="#000"/><rect x="111.7" y="14.4" width="16.4" height="1" fill="#fff"/><rect x="128.9" y="80.7" width="14.2" height="1" fill="#000"/><rect x="321.8" y="26.7" width="12.6" height="1" fill="#fff"/><rect x="19.1" y="5.5" width="20.7" height="1" fill="#000"/><rect x="245.4" y="62.1" width="3.7" height="1" fill="#fff"/><rect x="329.3" y="25.4" width="14.7" height="1" fill="#000"/><rect x="23.6" y="48.5" width="19.0" height="1" fill="#fff"/><rect x="352.9" y="68.3" width="3.6" height="1" fill="#000"/><rect x="222.0" y="21.8" width="21.9" height="1" fill="#fff"/><rect x="231.3" y="62.1" width="16.8" height="1" fill="#000"/><rect x="133.7" y="18.2" width="19.7" height="1" fill="#fff"/><rect x="105.8" y="43.0" width="17.6" height="1" fill="#000"/><rect x="324.2" y="73.5" width="19.7" height="1" fill="#fff"/><rect x="117.6" y="46.8" width="13.2" height="1" fill="#000"/><rect x="86.7" y="7.9" width="7.3" height="1" fill="#fff"/><rect x="408.2" y="1.7" width="11.1" height="1" fill="#000"/><rect x="410.7" y="73.2" width="11.8" height="1" fill="#fff"/><rect x="270.9" y="51.5" width="18.6" height="1" fill="#000"/><rect x="165.4" y="89.6" width="18.6" height="1" fill="#fff"/><rect x="271.0" y="16.4" width="21.0" height="1" fill="#000"/><rect x="340.2" y="92.9" width="12.9" height="1" fill="#fff"/><rect x="125.8" y="40.2" width="3.6" height="1" fill="#000"/><rect x="228.4" y="11.3" width="2.2" height="1" fill="#fff"/><rect x="400.7" y="51.1" width="17.8" height="1" fill="#000"/><rect x="395.3" y="96.6" width="15.7" height="1" fill="#fff"/><rect x="389.0" y="84.9" width="4.9" height="1" fill="#000"/><rect x="134.3" y="61.0" width="16.7" height="1" fill="#fff"/><rect x="232.0" y="69.8" width="16.2" height="1" fill="#000"/><rect x="10.7" y="48.3" width="12.7" height="1" fill="#fff"/><rect x="71.1" y="41.6" width="15.2" height="1" fill="#000"/><rect x="165.9" y="94.7" width="10.9" height="1" fill="#fff"/><rect x="47.6" y="36.5" width="9.0" height="1" fill="#000"/><rect x="317.1" y="20.0" width="18.7" height="1" fill="#fff"/><rect x="302.9" y="90.3" width="5.1" height="1" fill="#000"/><rect x="181.7" y="76.4" width="21.3" height="1" fill="#fff"/><rect x="130.2" y="23.2" width="10.7" height="1" fill="#000"/><rect x="325.1" y="83.7" width="4.3" height="1" fill="#fff"/><rect x="95.0" y="87.0" width="11.2" height="1" fill="#000"/><rect x="40.5" y="78.1" width="18.8" height="1" fill="#fff"/><rect x="338.5" y="101.9" width="14.0" height="1" fill="#000"/><rect x="317.4" y="95.4" width="6.2" height="1" fill="#fff"/><rect x="154.0" y="103.8" width="4.4" height="1" fill="#000"/><rect x="25.0" y="63.8" width="17.8" height="1" fill="#fff"/><rect x="107.0" y="20.6" width="11.7" height="1" fill="#000"/><rect x="152.7" y="19.2" width="17.1" height="1" fill="#fff"/><rect x="338.7" y="104.5" width="21.2" height="1" fill="#000"/><rect x="417.7" y="105.5" width="11.2" height="1" fill="#fff"/><rect x="142.5" y="67.3" width="18.3" height="1" fill="#000"/><rect x="113.6" y="34.9" width="7.6" height="1" fill="#fff"/><rect x="83.7" y="53.2" width="10.2" height="1" fill="#000"/><rect x="229.5" y="59.2" width="13.5" height="1" fill="#fff"/><rect x="303.6" y="98.0" width="4.5" height="1" fill="#000"/><rect x="58.8" y="106.6" width="14.4" height="1" fill="#fff"/><rect x="95.6" y="21.9" width="8.3" height="1" fill="#000"/><rect x="166.8" y="104.9" width="17.4" height="1" fill="#fff"/><rect x="25.0" y="76.7" width="7.0" height="1" fill="#000"/><rect x="270.9" y="90.3" width="8.1" height="1" fill="#fff"/><rect x="233.2" y="82.6" width="8.0" height="1" fill="#000"/><rect x="88.4" y="98.6" width="15.7" height="1" fill="#fff"/><rect x="13.4" y="75.4" width="18.5" height="1" fill="#000"/><rect x="184.7" y="58.0" width="3.5" height="1" fill="#fff"/><rect x="355.0" y="91.3" width="1.9" height="1" fill="#000"/><rect x="277.0" y="4.3" width="0.9" height="1" fill="#fff"/><rect x="127.4" y="58.1" width="9.6" height="1" fill="#000"/><rect x="82.8" y="81.7" width="15.2" height="1" fill="#fff"/><rect x="319.8" y="12.0" width="4.8" height="1" fill="#000"/><rect x="167.2" y="2.0" width="9.7" height="1" fill="#fff"/><rect x="225.7" y="96.8" width="17.0" height="1" fill="#000"/><rect x="247.8" y="17.4" width="13.8" height="1" fill="#fff"/><rect x="410.3" y="24.7" width="9.4" height="1" fill="#000"/><rect x="41.8" y="55.7" width="12.9" height="1" fill="#fff"/><rect x="166.9" y="47.5" width="11.4" height="1" fill="#000"/><rect x="114.5" y="45.1" width="14.1" height="1" fill="#fff"/><rect x="61.0" y="93.4" width="8.3" height="1" fill="#000"/><rect x="183.3" y="21.4" width="3.0" height="1" fill="#fff"/><rect x="233.8" y="90.2" width="7.4" height="1" fill="#000"/><rect x="389.4" y="20.8" width="8.7" height="1" fill="#fff"/><rect x="402.7" y="74.1" width="16.1" height="1" fill="#000"/><rect x="26.4" y="79.2" width="16.7" height="1" fill="#fff"/><rect x="285.0" y="81.0" width="19.7" height="1" fill="#000"/><rect x="83.4" y="16.5" width="12.2" height="1" fill="#fff"/><rect x="22.1" y="38.8" width="3.5" height="1" fill="#000"/><rect x="277.8" y="84.9" width="2.7" height="1" fill="#fff"/><rect x="179.2" y="91.7" width="18.9" height="1" fill="#000"/><rect x="326.9" y="104.2" width="17.4" height="1" fill="#fff"/><rect x="49.7" y="59.5" width="7.3" height="1" fill="#000"/><rect x="372.2" y="2.6" width="19.7" height="1" fill="#fff"/><rect x="199.0" y="86.4" width="19.8" height="1" fill="#000"/><rect x="130.8" y="31.9" width="16.9" height="1" fill="#fff"/><rect x="344.3" y="100.2" width="20.0" height="1" fill="#000"/></g>
</svg>
