<svg xmlns="http://www.w3.org/2000/svg" width="424" height="108" viewBox="0 0 424 108">
  <defs><clipPath id="p"><path d="M 0 -0.39 L 14 -1.89 L 28 -0.07 L 42 3.24 L 56 5.59 L 70 1.82 L 84 0.15 L 98 -0.92 L 112 0.49 L 126 1.57 L 140 4.85 L 154 -1.82 L 168 6.77 L 182 -1.86 L 196 3.14 L 210 -0.01 L 224 5.19 L 238 -0.37 L 252 7.48 L 266 1.27 L 280 4.88 L 294 4.49 L 308 3.62 L 322 3.15 L 336 -0.73 L 350 -3.51 L 364 2.7 L 378 3.07 L 392 6.14 L 406 -3.24 L 420 6.14 L 424 1.8 L 424 105.69 L 420 107.65 L 406 105.43 L 392 108.24 L 378 108.94 L 364 106.05 L 350 107.77 L 336 108.96 L 322 107.15 L 308 100.53 L 294 106.97 L 280 101.98 L 266 103.77 L 252 105.2 L 238 107.79 L 224 101.74 L 210 111.91 L 196 108.83 L 182 111.69 L 168 102.35 L 154 104.34 L 140 108.86 L 126 111.77 L 112 105.59 L 98 110.52 L 84 106.42 L 70 111.81 L 56 100.9 L 42 103.55 L 28 107.27 L 14 106.27 L 0 105.4 Z"/></clipPath></defs>
  <path d="M 0 -0.39 L 14 -1.89 L 28 -0.07 L 42 3.24 L 56 5.59 L 70 1.82 L 84 0.15 L 98 -0.92 L 112 0.49 L 126 1.57 L 140 4.85 L 154 -1.82 L 168 6.77 L 182 -1.86 L 196 3.14 L 210 -0.01 L 224 5.19 L 238 -0.37 L 252 7.48 L 266 1.27 L 280 4.88 L 294 4.49 L 308 3.62 L 322 3.15 L 336 -0.73 L 350 -3.51 L 364 2.7 L 378 3.07 L 392 6.14 L 406 -3.24 L 420 6.14 L 424 1.8 L 424 105.69 L 420 107.65 L 406 105.43 L 392 108.24 L 378 108.94 L 364 106.05 L 350 107.77 L 336 108.96 L 322 107.15 L 308 100.53 L 294 106.97 L 280 101.98 L 266 103.77 L 252 105.2 L 238 107.79 L 224 101.74 L 210 111.91 L 196 108.83 L 182 111.69 L 168 102.35 L 154 104.34 L 140 108.86 L 126 111.77 L 112 105.59 L 98 110.52 L 84 106.42 L 70 111.81 L 56 100.9 L 42 103.55 L 28 107.27 L 14 106.27 L 0 105.4 Z" fill="#F3F1EC"/>
  <g clip-path="url(#p)" opacity=".06"><rect x="284.6" y="106.0" width="2.1" height="1" fill="#fff"/><rect x="123.8" y="50.9" width="16.0" height="1" fill="#000"/><rect x="233.0" y="79.7" width="20.6" height="1" fill="#fff"/><rect x="364.7" y="21.1" width="3.1" height="1" fill="#000"/><rect x="271.7" y="28.4" width="16.8" height="1" fill="#fff"/><rect x="130.5" y="38.3" width="4.8" height="1" fill="#000"/><rect x="118.0" y="96.0" width="20.2" height="1" fill="#fff"/><rect x="410.6" y="30.5" width="6.2" height="1" fill="#000"/><rect x="337.2" y="102.7" width="16.0" height="1" fill="#fff"/><rect x="74.4" y="33.7" width="14.7" height="1" fill="#000"/><rect x="222.8" y="84.4" width="11.6" height="1" fill="#fff"/><rect x="111.1" y="83.9" width="15.8" height="1" fill="#000"/><rect x="340.0" y="77.1" width="14.4" height="1" fill="#fff"/><rect x="238.1" y="1.1" width="16.6" height="1" fill="#000"/><rect x="406.2" y="8.8" width="9.6" height="1" fill="#fff"/><rect x="172.8" y="37.2" width="2.5" height="1" fill="#000"/><rect x="138.6" y="23.5" width="4.6" height="1" fill="#fff"/><rect x="56.4" y="12.4" width="2.9" height="1" fill="#000"/><rect x="102.7" y="49.2" width="6.7" height="1" fill="#fff"/><rect x="30.3" y="70.6" width="3.2" height="1" fill="#000"/><rect x="15.8" y="13.8" width="1.4" height="1" fill="#fff"/><rect x="235.8" y="31.8" width="10.5" height="1" fill="#000"/><rect x="19.1" y="61.5" width="17.8" height="1" fill="#fff"/><rect x="390.3" y="40.0" width="10.3" height="1" fill="#000"/><rect x="254.1" y="12.2" width="19.3" height="1" fill="#fff"/><rect x="211.1" y="23.2" width="9.9" height="1" fill="#000"/><rect x="14.0" y="9.9" width="13.3" height="1" fill="#fff"/><rect x="263.5" y="17.4" width="16.6" height="1" fill="#000"/><rect x="288.3" y="90.6" width="7.1" height="1" fill="#fff"/><rect x="264.9" y="58.6" width="15.8" height="1" fill="#000"/><rect x="370.1" y="74.3" width="8.0" height="1" fill="#fff"/><rect x="356.6" y="74.7" width="14.8" height="1" fill="#000"/><rect x="401.0" y="105.0" width="1.4" height="1" fill="#fff"/><rect x="255.9" y="101.9" width="20.9" height="1" fill="#000"/><rect x="98.1" y="2.6" width="16.6" height="1" fill="#fff"/><rect x="104.2" y="68.1" width="19.5" height="1" fill="#000"/><rect x="26.8" y="19.3" width="16.9" height="1" fill="#fff"/><rect x="42.8" y="9.3" width="17.9" height="1" fill="#000"/><rect x="328.6" y="83.0" width="9.6" height="1" fill="#fff"/><rect x="213.0" y="69.5" width="1.4" height="1" fill="#000"/><rect x="296.6" y="13.7" width="2.2" height="1" fill="#fff"/><rect x="332.1" y="68.7" width="21.3" height="1" fill="#000"/><rect x="72.2" y="63.4" width="1.9" height="1" fill="#fff"/><rect x="117.6" y="42.9" width="19.1" height="1" fill="#000"/><rect x="220.8" y="52.1" width="16.1" height="1" fill="#fff"/><rect x="134.7" y="28.0" width="2.0" height="1" fill="#000"/><rect x="35.7" y="15.8" width="8.0" height="1" fill="#fff"/><rect x="100.7" y="60.2" width="21.3" height="1" fill="#000"/><rect x="82.3" y="98.4" width="7.1" height="1" fill="#fff"/><rect x="157.1" y="67.4" width="18.5" height="1" fill="#000"/><rect x="77.8" y="12.1" width="20.7" height="1" fill="#fff"/><rect x="21.0" y="85.6" width="0.8" height="1" fill="#000"/><rect x="163.6" y="8.8" width="12.0" height="1" fill="#fff"/><rect x="258.0" y="42.8" width="19.5" height="1" fill="#000"/><rect x="57.0" y="16.5" width="10.5" height="1" fill="#fff"/><rect x="161.2" y="83.0" width="16.1" height="1" fill="#000"/><rect x="323.4" y="71.2" width="1.4" height="1" fill="#fff"/><rect x="296.1" y="26.2" width="19.7" height="1" fill="#000"/><rect x="256.0" y="100.9" width="14.2" height="1" fill="#fff"/><rect x="379.9" y="16.3" width="15.9" height="1" fill="#000"/><rect x="420.4" y="33.6" width="12.0" height="1" fill="#fff"/><rect x="130.0" y="89.5" width="11.8" height="1" fill="#000"/><rect x="109.6" y="13.2" width="2.4" height="1" fill="#fff"/><rect x="111.8" y="65.7" width="14.9" height="1" fill="#000"/><rect x="313.2" y="75.9" width="14.5" height="1" fill="#fff"/><rect x="42.5" y="88.9" width="10.4" height="1" fill="#000"/><rect x="324.4" y="41.6" width="11.7" height="1" fill="#fff"/><rect x="63.5" y="87.1" width="5.7" height="1" fill="#000"/><rect x="284.6" y="54.3" width="1.4" height="1" fill="#fff"/><rect x="316.2" y="96.3" width="8.1" height="1" fill="#000"/><rect x="335.0" y="42.0" width="13.0" height="1" fill="#fff"/><rect x="93.8" y="44.5" width="3.1" height="1" fill="#000"/><rect x="193.1" y="40.7" width="9.6" height="1" fill="#fff"/><rect x="385.7" y="75.6" width="19.8" height="1" fill="#000"/><rect x="0.2" y="86.4" width="20.7" height="1" fill="#fff"/><rect x="61.2" y="9.8" width="21.6" height="1" fill="#000"/><rect x="321.5" y="107.1" width="9.6" height="1" fill="#fff"/><rect x="109.7" y="99.0" width="15.9" height="1" fill="#000"/><rect x="26.5" y="30.7" width="5.6" height="1" fill="#fff"/><rect x="248.5" y="55.2" width="10.0" height="1" fill="#000"/><rect x="104.4" y="1.4" width="16.1" height="1" fill="#fff"/><rect x="194.9" y="22.4" width="11.2" height="1" fill="#000"/><rect x="272.7" y="55.1" width="4.4" height="1" fill="#fff"/><rect x="90.3" y="36.6" width="4.9" height="1" fill="#000"/><rect x="248.5" y="11.8" width="21.8" height="1" fill="#fff"/><rect x="76.0" y="25.8" width="20.4" height="1" fill="#000"/><rect x="173.4" y="15.5" width="9.7" height="1" fill="#fff"/><rect x="293.3" y="25.9" width="21.0" height="1" fill="#000"/><rect x="188.5" y="102.2" width="19.4" height="1" fill="#fff"/><rect x="35.6" y="73.1" width="14.1" height="1" fill="#000"/><rect x="11.2" y="91.9" width="14.2" height="1" fill="#fff"/><rect x="292.1" y="95.3" width="7.0" height="1" fill="#000"/><rect x="207.0" y="20.5" width="1.5" height="1" fill="#fff"/><rect x="356.3" y="20.5" width="7.0" height="1" fill="#000"/><rect x="69.0" y="32.2" width="10.6" height="1" fill="#fff"/><rect x="369.5" y="100.7" width="21.4" height="1" fill="#000"/><rect x="162.6" y="54.9" width="4.8" height="1" fill="#fff"/><rect x="49.0" y="47.9" width="13.7" height="1" fill="#000"/><rect x="205.2" y="16.6" width="13.4" height="1" fill="#fff"/><rect x="384.1" y="6.1" width="13.1" height="1" fill="#000"/><rect x="338.1" y="61.3" width="21.9" height="1" fill="#fff"/><rect x="244.1" y="11.3" width="4.9" height="1" fill="#000"/><rect x="278.7" y="9.0" width="15.5" height="1" fill="#fff"/><rect x="194.5" y="99.4" width="18.6" height="1" fill="#000"/><rect x="168.2" y="3.7" width="1.5" height="1" fill="#fff"/><rect x="376.4" y="90.6" width="17.4" height="1" fill="#000"/><rect x="148.0" y="81.3" width="9.4" height="1" fill="#fff"/><rect x="83.4" y="20.8" width="8.6" height="1" fill="#000"/><rect x="359.4" y="62.0" width="2.3" height="1" fill="#fff"/><rect x="304.6" y="34.0" width="21.7" height="1" fill="#000"/><rect x="95.8" y="89.7" width="9.8" height="1" fill="#fff"/><rect x="333.5" y="58.2" width="19.8" height="1" fill="#000"/><rect x="346.4" y="92.4" width="17.0" height="1" fill="#fff"/><rect x="311.3" y="21.4" width="10.5" height="1" fill="#000"/><rect x="404.8" y="106.1" width="9.4" height="1" fill="#fff"/><rect x="379.4" y="67.6" width="0.9" height="1" fill="#000"/><rect x="412.0" y="58.8" width="16.2" height="1" fill="#fff"/><rect x="255.2" y="16.7" width="20.5" height="1" fill="#000"/><rect x="85.6" y="94.5" width="0.8" height="1" fill="#fff"/><rect x="79.9" y="12.9" width="10.5" height="1" fill="#000"/><rect x="414.8" y="33.1" width="14.6" height="1" fill="#fff"/><rect x="418.9" y="92.1" width="0.3" height="1" fill="#000"/><rect x="269.0" y="18.8" width="20.8" height="1" fill="#fff"/><rect x="141.6" y="74.3" width="19.3" height="1" fill="#000"/><rect x="213.4" y="87.5" width="4.8" height="1" fill="#fff"/><rect x="237.2" y="103.5" width="8.7" height="1" fill="#000"/><rect x="389.5" y="59.2" width="18.0" height="1" fill="#fff"/><rect x="423.1" y="107.7" width="19.9" height="1" fill="#000"/><rect x="90.6" y="77.9" width="1.6" height="1" fill="#fff"/><rect x="416.6" y="14.9" width="16.2" height="1" fill="#000"/><rect x="305.9" y="71.6" width="7.0" height="1" fill="#fff"/><rect x="359.1" y="77.0" width="5.0" height="1" fill="#000"/><rect x="328.9" y="76.3" width="19.5" height="1" fill="#fff"/><rect x="391.9" y="6.2" width="15.6" height="1" fill="#000"/><rect x="300.8" y="19.9" width="2.5" height="1" fill="#fff"/><rect x="232.3" y="54.4" width="11.3" height="1" fill="#000"/><rect x="363.1" y="46.6" width="7.3" height="1" fill="#fff"/><rect x="21.7" y="41.6" width="21.5" height="1" fill="#000"/><rect x="232.9" y="84.3" width="19.2" height="1" fill="#fff"/><rect x="325.4" y="3.8" width="9.5" height="1" fill="#000"/><rect x="51.8" y="61.0" width="1.6" height="1" fill="#fff"/><rect x="12.7" y="85.0" width="4.6" height="1" fill="#000"/><rect x="384.9" y="12.7" width="5.8" height="1" fill="#fff"/><rect x="73.0" y="105.2" width="14.2" height="1" fill="#000"/><rect x="101.6" y="83.4" width="17.1" height="1" fill="#fff"/><rect x="223.5" y="100.3" width="1.6" height="1" fill="#000"/><rect x="191.4" y="93.1" width="20.9" height="1" fill="#fff"/><rect x="181.7" y="106.5" width="18.1" height="1" fill="#000"/><rect x="371.4" y="77.8" width="2.4" height="1" fill="#fff"/><rect x="88.9" y="51.7" width="5.0" height="1" fill="#000"/><rect x="359.0" y="73.4" width="13.1" height="1" fill="#fff"/><rect x="86.4" y="79.9" width="13.8" height="1" fill="#000"/><rect x="295.6" y="8.1" width="16.3" height="1" fill="#fff"/><rect x="315.5" y="11.1" width="7.7" height="1" fill="#000"/><rect x="322.5" y="25.8" width="19.2" height="1" fill="#fff"/><rect x="69.5" y="97.3" width="16.1" height="1" fill="#000"/><rect x="157.1" y="54.5" width="7.3" height="1" fill="#fff"/><rect x="337.9" y="50.5" width="2.2" height="1" fill="#000"/><rect x="364.6" y="22.2" width="9.9" height="1" fill="#fff"/><rect x="413.8" y="14.6" width="17.5" height="1" fill="#000"/><rect x="238.3" y="72.9" width="12.2" height="1" fill="#fff"/><rect x="14.8" y="25.8" width="3.2" height="1" fill="#000"/><rect x="343.8" y="26.6" width="21.7" height="1" fill="#fff"/><rect x="130.0" y="12.0" width="10.8" height="1" fill="#000"/><rect x="398.2" y="27.2" width="1.6" height="1" fill="#fff"/><rect x="52.9" y="9.2" width="3.4" height="1" fill="#000"/><rect x="118.8" y="2.9" width="3.4" height="1" fill="#fff"/><rect x="348.7" y="53.4" width="10.6" height="1" fill="#000"/><rect x="71.1" y="97.6" width="12.2" height="1" fill="#fff"/><rect x="310.8" y="72.6" width="17.5" height="1" fill="#000"/><rect x="396.4" y="23.3" width="13.6" height="1" fill="#fff"/><rect x="80.6" y="102.8" width="9.6" height="1" fill="#000"/><rect x="388.0" y="32.0" width="14.7" height="1" fill="#fff"/><rect x="223.3" y="72.0" width="16.1" height="1" fill="#000"/><rect x="187.2" y="51.7" width="0.9" height="1" fill="#fff"/><rect x="32.3" y="16.1" width="0.4" height="1" fill="#000"/><rect x="359.4" y="10.4" width="1.7" height="1" fill="#fff"/><rect x="73.0" y="79.3" width="13.9" height="1" fill="#000"/><rect x="197.8" y="52.0" width="2.2" height="1" fill="#fff"/><rect x="62.6" y="81.5" width="19.8" height="1" fill="#000"/><rect x="267.9" y="104.7" width="9.8" height="1" fill="#fff"/><rect x="142.5" y="58.7" width="3.5" height="1" fill="#000"/><rect x="287.0" y="96.4" width="9.9" height="1" fill="#fff"/><rect x="30.0" y="46.9" width="16.3" height="1" fill="#000"/><rect x="396.3" y="63.1" width="9.8" height="1" fill="#fff"/><rect x="290.5" y="82.1" width="21.6" height="1" fill="#000"/><rect x="313.3" y="40.8" width="16.9" height="1" fill="#fff"/><rect x="217.3" y="92.3" width="4.7" height="1" fill="#000"/><rect x="179.2" y="65.5" width="16.4" height="1" fill="#fff"/><rect x="375.7" y="5.4" width="16.9" height="1" fill="#000"/><rect x="135.5" y="65.2" width="15.6" height="1" fill="#fff"/><rect x="59.1" y="73.6" width="21.6" height="1" fill="#000"/><rect x="323.3" y="75.8" width="0.1" height="1" fill="#fff"/><rect x="256.8" y="8.8" width="4.1" height="1" fill="#000"/><rect x="36.2" y="25.5" width="20.9" height="1" fill="#fff"/><rect x="262.1" y="63.0" width="15.7" height="1" fill="#000"/><rect x="263.3" y="58.2" width="19.6" height="1" fill="#fff"/><rect x="216.4" y="56.2" width="19.8" height="1" fill="#000"/><rect x="298.0" y="101.9" width="3.4" height="1" fill="#fff"/><rect x="260.9" y="24.4" width="1.7" height="1" fill="#000"/><rect x="281.8" y="84.6" width="1.7" height="1" fill="#fff"/><rect x="113.1" y="3.6" width="12.7" height="1" fill="#000"/><rect x="355.8" y="42.3" width="21.8" height="1" fill="#fff"/><rect x="338.3" y="29.7" width="16.2" height="1" fill="#000"/><rect x="237.4" y="11.0" width="5.0" height="1" fill="#fff"/><rect x="229.8" y="30.9" width="19.4" height="1" fill="#000"/><rect x="68.0" y="26.6" width="2.6" height="1" fill="#fff"/><rect x="352.8" y="43.1" width="7.8" height="1" fill="#000"/><rect x="412.9" y="17.3" width="0.1" height="1" fill="#fff"/><rect x="0.9" y="102.3" width="10.7" height="1" fill="#000"/><rect x="141.5" y="19.0" width="4.7" height="1" fill="#fff"/><rect x="163.2" y="28.5" width="13.3" height="1" fill="#000"/><rect x="242.9" y="67.7" width="1.7" height="1" fill="#fff"/><rect x="133.2" y="73.7" width="1.1" height="1" fill="#000"/><rect x="10.7" y="91.4" width="20.6" height="1" fill="#fff"/><rect x="52.2" y="57.9" width="3.3" height="1" fill="#000"/><rect x="10.2" y="18.1" width="2.6" height="1" fill="#fff"/><rect x="61.4" y="17.0" width="5.4" height="1" fill="#000"/><rect x="382.5" y="99.8" width="21.0" height="1" fill="#fff"/><rect x="302.3" y="95.2" width="14.6" height="1" fill="#000"/><rect x="421.2" y="48.5" width="17.2" height="1" fill="#fff"/><rect x="68.1" y="4.4" width="16.2" height="1" fill="#000"/><rect x="267.5" y="8.1" width="20.6" height="1" fill="#fff"/><rect x="348.2" y="104.6" width="17.6" height="1" fill="#000"/><rect x="62.8" y="14.8" width="16.4" height="1" fill="#fff"/><rect x="12.0" y="107.8" width="4.2" height="1" fill="#000"/><rect x="372.4" y="104.5" width="12.0" height="1" fill="#fff"/><rect x="48.7" y="50.0" width="5.2" height="1" fill="#000"/><rect x="65.6" y="97.2" width="14.8" height="1" fill="#fff"/><rect x="175.7" y="75.2" width="6.0" height="1" fill="#000"/><rect x="131.7" y="28.9" width="10.0" height="1" fill="#fff"/><rect x="110.4" y="3.3" width="14.0" height="1" fill="#000"/><rect x="288.2" y="43.6" width="5.0" height="1" fill="#fff"/><rect x="418.0" y="86.5" width="14.4" height="1" fill="#000"/><rect x="252.3" y="69.3" width="7.2" height="1" fill="#fff"/><rect x="391.9" y="36.7" width="14.6" height="1" fill="#000"/><rect x="165.3" y="33.9" width="1.8" height="1" fill="#fff"/><rect x="173.4" y="105.9" width="21.9" height="1" fill="#000"/><rect x="168.7" y="81.6" width="18.2" height="1" fill="#fff"/><rect x="327.9" y="6.1" width="21.7" height="1" fill="#000"/><rect x="403.7" y="32.3" width="19.7" height="1" fill="#fff"/><rect x="148.7" y="97.3" width="21.3" height="1" fill="#000"/><rect x="163.6" y="30.0" width="13.7" height="1" fill="#fff"/><rect x="201.1" y="91.5" width="6.0" height="1" fill="#000"/><rect x="13.8" y="2.7" width="7.5" height="1" fill="#fff"/><rect x="202.5" y="24.7" width="5.2" height="1" fill="#000"/><rect x="95.7" y="94.4" width="8.4" height="1" fill="#fff"/><rect x="294.2" y="40.8" width="4.2" height="1" fill="#000"/><rect x="126.5" y="17.1" width="1.8" height="1" fill="#fff"/><rect x="193.5" y="68.0" width="10.3" height="1" fill="#000"/><rect x="247.7" y="22.7" width="17.0" height="1" fill="#fff"/><rect x="41.8" y="34.2" width="8.9" height="1" fill="#000"/><rect x="176.4" y="39.4" width="17.3" height="1" fill="#fff"/><rect x="404.3" y="83.4" width="7.3" height="1" fill="#000"/><rect x="54.1" y="103.1" width="10.1" height="1" fill="#fff"/><rect x="150.5" y="35.6" width="12.8" height="1" fill="#000"/><rect x="22.2" y="33.8" width="2.6" height="1" fill="#fff"/><rect x="269.7" y="34.8" width="10.8" height="1" fill="#000"/><rect x="221.8" y="83.5" width="2.3" height="1" fill="#fff"/><rect x="55.2" y="9.0" width="8.5" height="1" fill="#000"/></g>
</svg>
