<svg xmlns="http://www.w3.org/2000/svg" width="424" height="108" viewBox="0 0 424 108">
  <defs><clipPath id="p"><path d="M 0 7.35 L 14 -1.43 L 28 6.18 L 42 -3.62 L 56 0.69 L 70 -3.02 L 84 6.43 L 98 -1.42 L 112 3.29 L 126 3.76 L 140 0.5 L 154 0.38 L 168 5.6 L 182 -0.32 L 196 5.49 L 210 -3.79 L 224 4.38 L 238 2.86 L 252 1.85 L 266 -1.14 L 280 0.76 L 294 -2.25 L 308 0.35 L 322 1.43 L 336 1.18 L 350 2.12 L 364 4.12 L 378 -3.62 L 392 3.41 L 406 2.08 L 420 0.59 L 424 0.47 L 424 103.13 L 420 108.97 L 406 105.56 L 392 106.08 L 378 104.41 L 364 106.07 L 350 105.26 L 336 106.83 L 322 106.32 L 308 105.91 L 294 106.48 L 280 108.54 L 266 107.3 L 252 105.61 L 238 112 L 224 102.66 L 210 103.46 L 196 100.93 L 182 109.25 L 168 102.3 L 154 110.59 L 140 102.33 L 126 110.36 L 112 107.23 L 98 108.13 L 84 102.91 L 70 108.1 L 56 101.91 L 42 106.18 L 28 106.45 L 14 109.92 L 0 104.44 Z"/></clipPath></defs>
  <path d="M 0 7.35 L 14 -1.43 L 28 6.18 L 42 -3.62 L 56 0.69 L 70 -3.02 L 84 6.43 L 98 -1.42 L 112 3.29 L 126 3.76 L 140 0.5 L 154 0.38 L 168 5.6 L 182 -0.32 L 196 5.49 L 210 -3.79 L 224 4.38 L 238 2.86 L 252 1.85 L 266 -1.14 L 280 0.76 L 294 -2.25 L 308 0.35 L 322 1.43 L 336 1.18 L 350 2.12 L 364 4.12 L 378 -3.62 L 392 3.41 L 406 2.08 L 420 0.59 L 424 0.47 L 424 103.13 L 420 108.97 L 406 105.56 L 392 106.08 L 378 104.41 L 364 106.07 L 350 105.26 L 336 106.83 L 322 106.32 L 308 105.91 L 294 106.48 L 280 108.54 L 266 107.3 L 252 105.61 L 238 112 L 224 102.66 L 210 103.46 L 196 100.93 L 182 109.25 L 168 102.3 L 154 110.59 L 140 102.33 L 126 110.36 L 112 107.23 L 98 108.13 L 84 102.91 L 70 108.1 L 56 101.91 L 42 106.18 L 28 106.45 L 14 109.92 L 0 104.44 Z" fill="#F3F1EC"/>
  <g clip-path="url(#p)" opacity=".06"><rect x="260.0" y="75.1" width="15.1" height="1" fill="#fff"/><rect x="33.4" y="72.3" width="2.3" height="1" fill="#000"/><rect x="41.5" y="36.3" width="0.4" height="1" fill="#fff"/><rect x="36.8" y="12.0" width="18.7" height="1" fill="#000"/><rect x="196.0" y="44.5" width="0.2" height="1" fill="#fff"/><rect x="271.8" y="70.7" width="20.2" height="1" fill="#000"/><rect x="16.8" y="27.7" width="21.8" height="1" fill="#fff"/><rect x="31.7" y="68.4" width="14.2" height="1" fill="#000"/><rect x="69.2" y="21.9" width="6.5" height="1" fill="#fff"/><rect x="305.9" y="41.1" width="8.0" height="1" fill="#000"/><rect x="70.6" y="63.1" width="5.7" height="1" fill="#fff"/><rect x="387.8" y="24.8" width="8.9" height="1" fill="#000"/><rect x="162.3" y="79.2" width="4.7" height="1" fill="#fff"/><rect x="418.6" y="55.5" width="2.3" height="1" fill="#000"/><rect x="61.6" y="106.4" width="10.8" height="1" fill="#fff"/><rect x="115.8" y="61.1" width="17.5" height="1" fill="#000"/><rect x="333.9" y="72.6" width="9.4" height="1" fill="#fff"/><rect x="44.5" y="77.8" width="17.8" height="1" fill="#000"/><rect x="272.4" y="13.8" width="7.8" height="1" fill="#fff"/><rect x="346.2" y="33.5" width="10.6" height="1" fill="#000"/><rect x="18.6" y="74.0" width="13.3" height="1" fill="#fff"/><rect x="314.2" y="72.2" width="3.1" height="1" fill="#000"/><rect x="137.8" y="73.2" width="11.2" height="1" fill="#fff"/><rect x="89.9" y="13.9" width="2.8" height="1" fill="#000"/><rect x="347.2" y="47.4" width="9.0" height="1" fill="#fff"/><rect x="238.5" y="2.6" width="17.0" height="1" fill="#000"/><rect x="364.3" y="32.5" width="13.9" height="1" fill="#fff"/><rect x="53.4" y="74.3" width="8.9" height="1" fill="#000"/><rect x="330.4" y="64.7" width="11.3" height="1" fill="#fff"/><rect x="99.9" y="48.9" width="8.0" height="1" fill="#000"/><rect x="386.7" y="71.9" width="8.4" height="1" fill="#fff"/><rect x="95.4" y="70.6" width="21.6" height="1" fill="#000"/><rect x="250.7" y="90.1" width="12.7" height="1" fill="#fff"/><rect x="181.2" y="67.3" width="12.9" height="1" fill="#000"/><rect x="63.6" y="47.3" width="9.4" height="1" fill="#fff"/><rect x="74.6" y="75.0" width="11.4" height="1" fill="#000"/><rect x="390.9" y="87.5" width="6.0" height="1" fill="#fff"/><rect x="341.0" y="21.7" width="2.3" height="1" fill="#000"/><rect x="101.8" y="30.7" width="9.6" height="1" fill="#fff"/><rect x="273.7" y="51.4" width="15.1" height="1" fill="#000"/><rect x="185.6" y="20.8" width="5.8" height="1" fill="#fff"/><rect x="14.0" y="92.1" width="12.9" height="1" fill="#000"/><rect x="359.7" y="94.0" width="1.7" height="1" fill="#fff"/><rect x="127.3" y="71.7" width="3.3" height="1" fill="#000"/><rect x="341.5" y="70.2" width="4.8" height="1" fill="#fff"/><rect x="330.9" y="26.4" width="15.4" height="1" fill="#000"/><rect x="272.2" y="93.4" width="0.3" height="1" fill="#fff"/><rect x="342.1" y="100.1" width="12.6" height="1" fill="#000"/><rect x="293.2" y="91.6" width="17.6" height="1" fill="#fff"/><rect x="302.2" y="4.8" width="2.4" height="1" fill="#000"/><rect x="121.8" y="100.8" width="20.1" height="1" fill="#fff"/><rect x="352.7" y="100.5" width="13.9" height="1" fill="#000"/><rect x="323.4" y="49.0" width="15.0" height="1" fill="#fff"/><rect x="210.8" y="99.2" width="10.5" height="1" fill="#000"/><rect x="191.4" y="80.1" width="9.7" height="1" fill="#fff"/><rect x="17.8" y="36.9" width="21.6" height="1" fill="#000"/><rect x="290.9" y="14.3" width="11.5" height="1" fill="#fff"/><rect x="339.2" y="57.6" width="10.5" height="1" fill="#000"/><rect x="339.4" y="103.5" width="5.8" height="1" fill="#fff"/><rect x="44.2" y="89.2" width="6.6" height="1" fill="#000"/><rect x="54.2" y="59.7" width="21.9" height="1" fill="#fff"/><rect x="122.1" y="59.9" width="17.1" height="1" fill="#000"/><rect x="0.6" y="26.9" width="1.1" height="1" fill="#fff"/><rect x="290.3" y="5.6" width="5.3" height="1" fill="#000"/><rect x="320.0" y="41.1" width="16.8" height="1" fill="#fff"/><rect x="266.2" y="70.3" width="0.8" height="1" fill="#000"/><rect x="305.7" y="30.3" width="10.3" height="1" fill="#fff"/><rect x="191.0" y="74.0" width="10.6" height="1" fill="#000"/><rect x="99.0" y="30.4" width="10.9" height="1" fill="#fff"/><rect x="206.2" y="52.7" width="20.3" height="1" fill="#000"/><rect x="265.2" y="77.6" width="4.0" height="1" fill="#fff"/><rect x="28.9" y="42.4" width="15.1" height="1" fill="#000"/><rect x="97.8" y="99.8" width="18.9" height="1" fill="#fff"/><rect x="224.6" y="79.0" width="2.4" height="1" fill="#000"/><rect x="162.0" y="25.0" width="18.9" height="1" fill="#fff"/><rect x="86.6" y="90.7" width="11.5" height="1" fill="#000"/><rect x="175.2" y="105.2" width="11.4" height="1" fill="#fff"/><rect x="180.3" y="5.4" width="5.7" height="1" fill="#000"/><rect x="278.6" y="52.4" width="3.6" height="1" fill="#fff"/><rect x="222.9" y="75.1" width="14.3" height="1" fill="#000"/><rect x="189.7" y="10.6" width="3.0" height="1" fill="#fff"/><rect x="355.8" y="11.8" width="0.8" height="1" fill="#000"/><rect x="49.8" y="15.8" width="16.9" height="1" fill="#fff"/><rect x="296.3" y="67.5" width="16.4" height="1" fill="#000"/><rect x="0.1" y="103.9" width="8.5" height="1" fill="#fff"/><rect x="185.8" y="62.2" width="2.4" height="1" fill="#000"/><rect x="182.1" y="95.1" width="7.3" height="1" fill="#fff"/><rect x="165.6" y="31.8" width="10.3" height="1" fill="#000"/><rect x="313.0" y="25.3" width="20.5" height="1" fill="#fff"/><rect x="377.0" y="12.5" width="3.3" height="1" fill="#000"/><rect x="110.3" y="38.5" width="11.6" height="1" fill="#fff"/><rect x="113.4" y="40.2" width="10.7" height="1" fill="#000"/><rect x="139.1" y="62.7" width="9.8" height="1" fill="#fff"/><rect x="364.1" y="42.9" width="17.9" height="1" fill="#000"/><rect x="117.0" y="25.9" width="0.4" height="1" fill="#fff"/><rect x="422.4" y="56.6" width="10.3" height="1" fill="#000"/><rect x="185.1" y="72.1" width="12.8" height="1" fill="#fff"/><rect x="5.7" y="9.3" width="17.1" height="1" fill="#000"/><rect x="60.9" y="21.2" width="10.4" height="1" fill="#fff"/><rect x="103.3" y="45.0" width="1.7" height="1" fill="#000"/><rect x="309.6" y="17.4" width="0.4" height="1" fill="#fff"/><rect x="8.5" y="91.6" width="15.5" height="1" fill="#000"/><rect x="224.6" y="96.6" width="12.2" height="1" fill="#fff"/><rect x="286.6" y="77.3" width="21.7" height="1" fill="#000"/><rect x="371.2" y="78.8" width="9.2" height="1" fill="#fff"/><rect x="231.1" y="38.0" width="5.7" height="1" fill="#000"/><rect x="42.8" y="108.0" width="20.6" height="1" fill="#fff"/><rect x="407.2" y="9.7" width="18.9" height="1" fill="#000"/><rect x="228.7" y="4.2" width="9.8" height="1" fill="#fff"/><rect x="108.2" y="28.4" width="2.5" height="1" fill="#000"/><rect x="222.3" y="19.4" width="6.1" height="1" fill="#fff"/><rect x="323.6" y="22.1" width="7.9" height="1" fill="#000"/><rect x="164.8" y="81.5" width="16.9" height="1" fill="#fff"/><rect x="346.6" y="26.8" width="20.4" height="1" fill="#000"/><rect x="197.6" y="10.7" width="5.5" height="1" fill="#fff"/><rect x="318.5" y="78.4" width="3.4" height="1" fill="#000"/><rect x="38.0" y="58.9" width="1.2" height="1" fill="#fff"/><rect x="380.7" y="105.1" width="8.2" height="1" fill="#000"/><rect x="251.4" y="46.1" width="11.4" height="1" fill="#fff"/><rect x="250.6" y="34.8" width="20.1" height="1" fill="#000"/><rect x="131.1" y="8.3" width="21.4" height="1" fill="#fff"/><rect x="69.4" y="11.5" width="2.5" height="1" fill="#000"/><rect x="242.4" y="89.5" width="16.5" height="1" fill="#fff"/><rect x="402.5" y="71.2" width="6.7" height="1" fill="#000"/><rect x="302.6" y="1.7" width="4.1" height="1" fill="#fff"/><rect x="119.3" y="33.9" width="18.0" height="1" fill="#000"/><rect x="29.2" y="104.8" width="13.5" height="1" fill="#fff"/><rect x="209.0" y="43.6" width="21.8" height="1" fill="#000"/><rect x="411.4" y="3.0" width="8.0" height="1" fill="#fff"/><rect x="389.0" y="28.3" width="3.3" height="1" fill="#000"/><rect x="318.6" y="56.2" width="17.0" height="1" fill="#fff"/><rect x="376.7" y="23.9" width="14.0" height="1" fill="#000"/><rect x="316.0" y="84.4" width="3.7" height="1" fill="#fff"/><rect x="313.3" y="66.6" width="17.2" height="1" fill="#000"/><rect x="121.1" y="15.6" width="19.6" height="1" fill="#fff"/><rect x="340.2" y="84.3" width="20.2" height="1" fill="#000"/><rect x="299.2" y="101.8" width="6.0" height="1" fill="#fff"/><rect x="174.7" y="5.0" width="8.2" height="1" fill="#000"/><rect x="143.5" y="55.0" width="14.1" height="1" fill="#fff"/><rect x="382.2" y="80.7" width="10.8" height="1" fill="#000"/><rect x="219.5" y="19.1" width="7.4" height="1" fill="#fff"/><rect x="256.0" y="23.4" width="13.1" height="1" fill="#000"/><rect x="244.4" y="30.3" width="15.2" height="1" fill="#fff"/><rect x="361.4" y="85.1" width="0.6" height="1" fill="#000"/><rect x="359.7" y="16.5" width="0.7" height="1" fill="#fff"/><rect x="415.8" y="85.7" width="2.6" height="1" fill="#000"/><rect x="282.5" y="13.7" width="15.4" height="1" fill="#fff"/><rect x="136.5" y="61.4" width="4.3" height="1" fill="#000"/><rect x="154.4" y="57.9" width="0.5" height="1" fill="#fff"/><rect x="88.8" y="48.1" width="13.2" height="1" fill="#000"/><rect x="116.5" y="77.1" width="7.4" height="1" fill="#fff"/><rect x="414.1" y="81.8" width="14.5" height="1" fill="#000"/><rect x="310.3" y="107.3" width="21.5" height="1" fill="#fff"/><rect x="405.7" y="90.5" width="15.6" height="1" fill="#000"/><rect x="29.0" y="76.5" width="6.0" height="1" fill="#fff"/><rect x="204.9" y="2.2" width="1.9" height="1" fill="#000"/><rect x="262.0" y="20.6" width="12.3" height="1" fill="#fff"/><rect x="377.0" y="68.9" width="2.6" height="1" fill="#000"/><rect x="302.6" y="83.8" width="3.8" height="1" fill="#fff"/><rect x="215.5" y="2.5" width="3.1" height="1" fill="#000"/><rect x="292.2" y="86.0" width="9.7" height="1" fill="#fff"/><rect x="285.6" y="55.2" width="10.7" height="1" fill="#000"/><rect x="372.1" y="63.2" width="15.4" height="1" fill="#fff"/><rect x="304.6" y="46.9" width="10.8" height="1" fill="#000"/><rect x="259.7" y="51.4" width="6.2" height="1" fill="#fff"/><rect x="414.0" y="13.6" width="10.7" height="1" fill="#000"/><rect x="96.2" y="86.6" width="11.5" height="1" fill="#fff"/><rect x="330.9" y="99.3" width="17.8" height="1" fill="#000"/><rect x="23.0" y="96.8" width="16.6" height="1" fill="#fff"/><rect x="196.9" y="16.0" width="17.3" height="1" fill="#000"/><rect x="181.4" y="9.9" width="6.9" height="1" fill="#fff"/><rect x="153.1" y="15.7" width="16.6" height="1" fill="#000"/><rect x="288.8" y="78.1" width="11.5" height="1" fill="#fff"/><rect x="341.0" y="26.3" width="1.0" height="1" fill="#000"/><rect x="62.4" y="13.3" width="16.0" height="1" fill="#fff"/><rect x="53.8" y="84.0" width="21.9" height="1" fill="#000"/><rect x="67.8" y="67.5" width="5.6" height="1" fill="#fff"/><rect x="280.9" y="8.7" width="20.5" height="1" fill="#000"/><rect x="22.0" y="60.7" width="9.7" height="1" fill="#fff"/><rect x="315.7" y="52.4" width="4.4" height="1" fill="#000"/><rect x="66.6" y="28.9" width="13.6" height="1" fill="#fff"/><rect x="299.4" y="35.1" width="2.6" height="1" fill="#000"/><rect x="342.8" y="8.1" width="2.6" height="1" fill="#fff"/><rect x="373.4" y="100.8" width="0.7" height="1" fill="#000"/><rect x="144.0" y="34.2" width="6.1" height="1" fill="#fff"/><rect x="255.1" y="69.5" width="5.9" height="1" fill="#000"/><rect x="35.4" y="35.4" width="9.3" height="1" fill="#fff"/><rect x="85.7" y="85.1" width="3.6" height="1" fill="#000"/><rect x="158.5" y="47.6" width="19.7" height="1" fill="#fff"/><rect x="6.6" y="75.8" width="1.0" height="1" fill="#000"/><rect x="230.6" y="106.8" width="0.6" height="1" fill="#fff"/><rect x="159.1" y="77.5" width="5.6" height="1" fill="#000"/><rect x="392.9" y="33.0" width="3.2" height="1" fill="#fff"/><rect x="260.6" y="18.2" width="2.6" height="1" fill="#000"/><rect x="362.9" y="78.2" width="13.0" height="1" fill="#fff"/><rect x="28.4" y="41.9" width="21.5" height="1" fill="#000"/><rect x="281.8" y="62.4" width="15.3" height="1" fill="#fff"/><rect x="27.8" y="76.6" width="3.5" height="1" fill="#000"/><rect x="291.1" y="21.5" width="17.3" height="1" fill="#fff"/><rect x="400.2" y="50.3" width="21.9" height="1" fill="#000"/><rect x="107.9" y="99.7" width="4.5" height="1" fill="#fff"/><rect x="14.9" y="107.0" width="18.1" height="1" fill="#000"/><rect x="297.8" y="8.9" width="6.1" height="1" fill="#fff"/><rect x="285.2" y="66.6" width="21.5" height="1" fill="#000"/><rect x="153.9" y="1.1" width="7.5" height="1" fill="#fff"/><rect x="80.5" y="73.3" width="17.3" height="1" fill="#000"/><rect x="241.6" y="4.3" width="16.1" height="1" fill="#fff"/><rect x="390.1" y="55.0" width="13.0" height="1" fill="#000"/><rect x="278.4" y="54.5" width="17.1" height="1" fill="#fff"/><rect x="83.3" y="47.7" width="15.7" height="1" fill="#000"/><rect x="405.4" y="79.7" width="17.9" height="1" fill="#fff"/><rect x="149.4" y="87.4" width="10.9" height="1" fill="#000"/><rect x="340.0" y="7.8" width="3.9" height="1" fill="#fff"/><rect x="305.9" y="102.1" width="5.9" height="1" fill="#000"/><rect x="223.6" y="91.0" width="4.3" height="1" fill="#fff"/><rect x="270.0" y="19.8" width="8.1" height="1" fill="#000"/><rect x="197.5" y="41.2" width="4.5" height="1" fill="#fff"/><rect x="183.0" y="92.4" width="2.7" height="1" fill="#000"/><rect x="403.1" y="2.4" width="11.8" height="1" fill="#fff"/><rect x="186.4" y="32.1" width="19.1" height="1" fill="#000"/><rect x="133.6" y="10.6" width="11.6" height="1" fill="#fff"/><rect x="421.3" y="90.8" width="20.6" height="1" fill="#000"/><rect x="378.4" y="101.8" width="11.2" height="1" fill="#fff"/><rect x="181.3" y="88.5" width="14.6" height="1" fill="#000"/><rect x="6.8" y="96.0" width="18.0" height="1" fill="#fff"/><rect x="31.5" y="61.2" width="8.4" height="1" fill="#000"/><rect x="8.2" y="29.2" width="17.2" height="1" fill="#fff"/><rect x="113.4" y="44.9" width="9.3" height="1" fill="#000"/><rect x="99.8" y="45.3" width="16.1" height="1" fill="#fff"/><rect x="144.2" y="75.6" width="2.7" height="1" fill="#000"/><rect x="423.2" y="72.5" width="0.3" height="1" fill="#fff"/><rect x="265.3" y="81.2" width="17.9" height="1" fill="#000"/><rect x="271.4" y="38.7" width="20.8" height="1" fill="#fff"/><rect x="194.1" y="97.9" width="18.2" height="1" fill="#000"/><rect x="210.0" y="87.9" width="19.2" height="1" fill="#fff"/><rect x="71.8" y="53.6" width="11.0" height="1" fill="#000"/><rect x="380.2" y="40.1" width="2.7" height="1" fill="#fff"/><rect x="39.8" y="92.3" width="3.6" height="1" fill="#000"/><rect x="75.4" y="39.3" width="0.7" height="1" fill="#fff"/><rect x="239.5" y="34.0" width="3.2" height="1" fill="#000"/><rect x="284.8" y="13.5" width="20.4" height="1" fill="#fff"/><rect x="388.1" y="22.7" width="17.4" height="1" fill="#000"/><rect x="301.9" y="106.6" width="3.3" height="1" fill="#fff"/><rect x="203.0" y="94.4" width="9.4" height="1" fill="#000"/><rect x="268.0" y="30.8" width="0.7" height="1" fill="#fff"/><rect x="249.5" y="69.0" width="8.5" height="1" fill="#000"/><rect x="324.3" y="38.0" width="19.8" height="1" fill="#fff"/><rect x="245.0" y="90.7" width="0.0" height="1" fill="#000"/><rect x="188.3" y="56.2" width="2.1" height="1" fill="#fff"/><rect x="330.8" y="87.4" width="13.4" height="1" fill="#000"/><rect x="1.2" y="13.4" width="20.9" height="1" fill="#fff"/><rect x="224.2" y="95.1" width="11.8" height="1" fill="#000"/><rect x="328.5" y="53.6" width="17.4" height="1" fill="#fff"/><rect x="66.6" y="41.8" width="2.8" height="1" fill="#000"/><rect x="39.3" y="104.8" width="21.1" height="1" fill="#fff"/><rect x="423.3" y="71.5" width="15.5" height="1" fill="#000"/><rect x="123.2" y="94.9" width="17.2" height="1" fill="#fff"/><rect x="163.6" y="4.2" width="13.4" height="1" fill="#000"/><rect x="297.3" y="60.1" width="13.1" height="1" fill="#fff"/><rect x="276.9" y="91.8" width="3.7" height="1" fill="#000"/></g>
</svg>
