<svg xmlns="http://www.w3.org/2000/svg" width="424" height="108" viewBox="0 0 424 108">
  <defs><clipPath id="p"><path d="M 0 4.42 L 14 -3.35 L 28 2.79 L 42 1.38 L 56 4.27 L 70 3.67 L 84 0.1 L 98 0.42 L 112 6.83 L 126 2.85 L 140 2.34 L 154 -3.5 L 168 -0.14 L 182 3.28 L 196 7.95 L 210 2.4 L 224 2.49 L 238 -1.58 L 252 0.71 L 266 2.22 L 280 3.16 L 294 -2.96 L 308 1.73 L 322 -2.58 L 336 -0.36 L 350 3.25 L 364 7.45 L 378 1.76 L 392 6.04 L 406 -0.5 L 420 2.65 L 424 6.36 L 424 103.17 L 420 106.06 L 406 105.84 L 392 107.04 L 378 111.84 L 364 100.12 L 350 108.39 L 336 101.85 L 322 110.37 L 308 103.47 L 294 111.34 L 280 102.85 L 266 109.52 L 252 106.56 L 238 103.81 L 224 101.81 L 210 104.76 L 196 106.5 L 182 106.58 L 168 108.18 L 154 110.17 L 140 108.07 L 126 107.09 L 112 108.07 L 98 105.55 L 84 103.72 L 70 108.45 L 56 101.25 L 42 106.34 L 28 104.55 L 14 103.44 L 0 108.18 Z"/></clipPath></defs>
  <path d="M 0 4.42 L 14 -3.35 L 28 2.79 L 42 1.38 L 56 4.27 L 70 3.67 L 84 0.1 L 98 0.42 L 112 6.83 L 126 2.85 L 140 2.34 L 154 -3.5 L 168 -0.14 L 182 3.28 L 196 7.95 L 210 2.4 L 224 2.49 L 238 -1.58 L 252 0.71 L 266 2.22 L 280 3.16 L 294 -2.96 L 308 1.73 L 322 -2.58 L 336 -0.36 L 350 3.25 L 364 7.45 L 378 1.76 L 392 6.04 L 406 -0.5 L 420 2.65 L 424 6.36 L 424 103.17 L 420 106.06 L 406 105.84 L 392 107.04 L 378 111.84 L 364 100.12 L 350 108.39 L 336 101.85 L 322 110.37 L 308 103.47 L 294 111.34 L 280 102.85 L 266 109.52 L 252 106.56 L 238 103.81 L 224 101.81 L 210 104.76 L 196 106.5 L 182 106.58 L 168 108.18 L 154 110.17 L 140 108.07 L 126 107.09 L 112 108.07 L 98 105.55 L 84 103.72 L 70 108.45 L 56 101.25 L 42 106.34 L 28 104.55 L 14 103.44 L 0 108.18 Z" fill="#F3F1EC"/>
  <g clip-path="url(#p)" opacity=".06"><rect x="61.2" y="75.1" width="16.0" height="1" fill="#fff"/><rect x="387.9" y="50.3" width="7.0" height="1" fill="#000"/><rect x="18.7" y="43.1" width="12.1" height="1" fill="#fff"/><rect x="402.3" y="98.8" width="18.3" height="1" fill="#000"/><rect x="19.4" y="46.2" width="12.8" height="1" fill="#fff"/><rect x="318.7" y="38.3" width="4.9" height="1" fill="#000"/><rect x="204.7" y="12.2" width="3.6" height="1" fill="#fff"/><rect x="278.2" y="12.8" width="18.2" height="1" fill="#000"/><rect x="291.8" y="85.2" width="13.8" height="1" fill="#fff"/><rect x="422.2" y="58.3" width="21.5" height="1" fill="#000"/><rect x="422.1" y="85.2" width="6.6" height="1" fill="#fff"/><rect x="44.1" y="102.9" width="0.2" height="1" fill="#000"/><rect x="312.9" y="48.2" width="11.5" height="1" fill="#fff"/><rect x="133.1" y="74.4" width="5.6" height="1" fill="#000"/><rect x="105.5" y="10.3" width="13.7" height="1" fill="#fff"/><rect x="406.7" y="8.9" width="1.0" height="1" fill="#000"/><rect x="365.4" y="7.3" width="20.6" height="1" fill="#fff"/><rect x="158.2" y="50.4" width="15.7" height="1" fill="#000"/><rect x="385.7" y="75.3" width="17.5" height="1" fill="#fff"/><rect x="376.8" y="18.9" width="13.1" height="1" fill="#000"/><rect x="307.9" y="34.3" width="11.8" height="1" fill="#fff"/><rect x="355.9" y="58.5" width="0.6" height="1" fill="#000"/><rect x="273.3" y="28.3" width="10.7" height="1" fill="#fff"/><rect x="236.9" y="97.0" width="7.4" height="1" fill="#000"/><rect x="423.3" y="93.4" width="21.7" height="1" fill="#fff"/><rect x="161.1" y="62.5" width="18.9" height="1" fill="#000"/><rect x="51.0" y="49.4" width="8.0" height="1" fill="#fff"/><rect x="269.8" y="99.0" width="20.4" height="1" fill="#000"/><rect x="146.0" y="40.4" width="21.0" height="1" fill="#fff"/><rect x="280.3" y="26.5" width="19.2" height="1" fill="#000"/><rect x="1.4" y="102.4" width="2.1" height="1" fill="#fff"/><rect x="334.0" y="97.0" width="0.7" height="1" fill="#000"/><rect x="182.8" y="55.4" width="2.4" height="1" fill="#fff"/><rect x="148.3" y="22.6" width="16.3" height="1" fill="#000"/><rect x="407.3" y="43.5" width="7.5" height="1" fill="#fff"/><rect x="288.4" y="55.1" width="7.2" height="1" fill="#000"/><rect x="392.3" y="102.5" width="2.6" height="1" fill="#fff"/><rect x="47.7" y="14.6" width="2.8" height="1" fill="#000"/><rect x="279.2" y="52.5" width="17.0" height="1" fill="#fff"/><rect x="415.5" y="45.1" width="10.4" height="1" fill="#000"/><rect x="209.2" y="37.5" width="14.1" height="1" fill="#fff"/><rect x="261.1" y="74.6" width="15.4" height="1" fill="#000"/><rect x="323.8" y="93.5" width="1.3" height="1" fill="#fff"/><rect x="150.0" y="31.2" width="3.0" height="1" fill="#000"/><rect x="340.3" y="40.5" width="7.8" height="1" fill="#fff"/><rect x="223.3" y="58.7" width="2.7" height="1" fill="#000"/><rect x="399.9" y="22.6" width="18.9" height="1" fill="#fff"/><rect x="198.6" y="85.2" width="21.7" height="1" fill="#000"/><rect x="220.0" y="75.6" width="20.1" height="1" fill="#fff"/><rect x="217.0" y="38.7" width="1.4" height="1" fill="#000"/><rect x="366.0" y="19.6" width="18.7" height="1" fill="#fff"/><rect x="419.9" y="63.2" width="15.1" height="1" fill="#000"/><rect x="131.2" y="106.6" width="21.9" height="1" fill="#fff"/><rect x="100.6" y="86.8" width="4.2" height="1" fill="#000"/><rect x="80.9" y="48.6" width="15.1" height="1" fill="#fff"/><rect x="248.6" y="37.3" width="19.9" height="1" fill="#000"/><rect x="356.4" y="97.7" width="5.7" height="1" fill="#fff"/><rect x="157.1" y="58.8" width="3.7" height="1" fill="#000"/><rect x="251.2" y="73.7" width="1.0" height="1" fill="#fff"/><rect x="391.4" y="79.3" width="6.8" height="1" fill="#000"/><rect x="330.4" y="12.7" width="8.3" height="1" fill="#fff"/><rect x="244.9" y="26.8" width="14.7" height="1" fill="#000"/><rect x="311.5" y="58.7" width="13.0" height="1" fill="#fff"/><rect x="282.9" y="45.4" width="12.5" height="1" fill="#000"/><rect x="335.8" y="31.7" width="0.3" height="1" fill="#fff"/><rect x="222.8" y="62.9" width="7.7" height="1" fill="#000"/><rect x="120.6" y="75.8" width="21.7" height="1" fill="#fff"/><rect x="205.9" y="7.4" width="7.5" height="1" fill="#000"/><rect x="231.3" y="10.8" width="18.4" height="1" fill="#fff"/><rect x="373.4" y="22.9" width="19.4" height="1" fill="#000"/><rect x="385.1" y="88.8" width="19.8" height="1" fill="#fff"/><rect x="18.9" y="37.4" width="6.7" height="1" fill="#000"/><rect x="299.5" y="21.8" width="11.2" height="1" fill="#fff"/><rect x="131.5" y="87.0" width="20.6" height="1" fill="#000"/><rect x="115.7" y="61.8" width="22.0" height="1" fill="#fff"/><rect x="4.6" y="99.5" width="2.5" height="1" fill="#000"/><rect x="399.1" y="28.9" width="15.4" height="1" fill="#fff"/><rect x="203.6" y="3.0" width="3.8" height="1" fill="#000"/><rect x="19.0" y="66.9" width="20.9" height="1" fill="#fff"/><rect x="21.8" y="49.5" width="9.8" height="1" fill="#000"/><rect x="388.8" y="103.9" width="1.7" height="1" fill="#fff"/><rect x="24.5" y="59.0" width="5.8" height="1" fill="#000"/><rect x="377.7" y="67.9" width="9.2" height="1" fill="#fff"/><rect x="353.0" y="67.6" width="21.1" height="1" fill="#000"/><rect x="127.2" y="102.9" width="6.7" height="1" fill="#fff"/><rect x="300.8" y="3.1" width="19.2" height="1" fill="#000"/><rect x="202.5" y="29.0" width="1.6" height="1" fill="#fff"/><rect x="9.0" y="9.6" width="7.2" height="1" fill="#000"/><rect x="321.0" y="98.0" width="1.2" height="1" fill="#fff"/><rect x="43.1" y="15.1" width="14.6" height="1" fill="#000"/><rect x="200.0" y="22.0" width="12.8" height="1" fill="#fff"/><rect x="120.4" y="55.6" width="4.7" height="1" fill="#000"/><rect x="404.9" y="53.0" width="21.7" height="1" fill="#fff"/><rect x="382.2" y="59.2" width="6.8" height="1" fill="#000"/><rect x="229.0" y="11.0" width="13.3" height="1" fill="#fff"/><rect x="121.9" y="61.7" width="6.3" height="1" fill="#000"/><rect x="237.6" y="40.1" width="17.0" height="1" fill="#fff"/><rect x="328.7" y="99.2" width="10.4" height="1" fill="#000"/><rect x="148.0" y="68.1" width="17.9" height="1" fill="#fff"/><rect x="296.1" y="99.7" width="4.6" height="1" fill="#000"/><rect x="101.6" y="23.1" width="1.6" height="1" fill="#fff"/><rect x="165.3" y="99.2" width="18.1" height="1" fill="#000"/><rect x="239.8" y="49.1" width="19.3" height="1" fill="#fff"/><rect x="77.7" y="25.7" width="14.3" height="1" fill="#000"/><rect x="279.7" y="74.1" width="12.4" height="1" fill="#fff"/><rect x="174.6" y="23.3" width="0.6" height="1" fill="#000"/><rect x="362.9" y="26.2" width="10.1" height="1" fill="#fff"/><rect x="173.4" y="19.8" width="6.1" height="1" fill="#000"/><rect x="206.6" y="49.2" width="19.8" height="1" fill="#fff"/><rect x="215.3" y="51.3" width="16.4" height="1" fill="#000"/><rect x="376.2" y="71.2" width="4.9" height="1" fill="#fff"/><rect x="17.8" y="45.8" width="16.7" height="1" fill="#000"/><rect x="164.9" y="20.2" width="16.7" height="1" fill="#fff"/><rect x="146.1" y="39.3" width="14.3" height="1" fill="#000"/><rect x="138.1" y="40.2" width="18.5" height="1" fill="#fff"/><rect x="317.6" y="67.9" width="16.6" height="1" fill="#000"/><rect x="13.2" y="59.2" width="17.7" height="1" fill="#fff"/><rect x="249.6" y="59.4" width="8.9" height="1" fill="#000"/><rect x="355.5" y="5.3" width="21.5" height="1" fill="#fff"/><rect x="83.5" y="49.9" width="20.6" height="1" fill="#000"/><rect x="34.3" y="22.3" width="15.4" height="1" fill="#fff"/><rect x="384.6" y="75.4" width="15.0" height="1" fill="#000"/><rect x="39.0" y="38.3" width="6.6" height="1" fill="#fff"/><rect x="22.2" y="63.9" width="21.4" height="1" fill="#000"/><rect x="86.8" y="89.3" width="2.5" height="1" fill="#fff"/><rect x="409.6" y="51.5" width="3.1" height="1" fill="#000"/><rect x="319.2" y="103.3" width="10.4" height="1" fill="#fff"/><rect x="416.2" y="74.0" width="11.5" height="1" fill="#000"/><rect x="29.4" y="8.4" width="15.7" height="1" fill="#fff"/><rect x="183.4" y="59.5" width="10.0" height="1" fill="#000"/><rect x="206.8" y="56.4" width="3.6" height="1" fill="#fff"/><rect x="276.4" y="44.0" width="5.8" height="1" fill="#000"/><rect x="144.7" y="67.4" width="3.6" height="1" fill="#fff"/><rect x="412.5" y="63.5" width="6.2" height="1" fill="#000"/><rect x="408.5" y="77.4" width="0.9" height="1" fill="#fff"/><rect x="309.2" y="46.1" width="18.7" height="1" fill="#000"/><rect x="291.4" y="14.4" width="2.9" height="1" fill="#fff"/><rect x="107.8" y="27.6" width="6.6" height="1" fill="#000"/><rect x="358.9" y="22.5" width="16.9" height="1" fill="#fff"/><rect x="373.5" y="44.1" width="21.1" height="1" fill="#000"/><rect x="328.2" y="29.5" width="6.3" height="1" fill="#fff"/><rect x="399.7" y="23.6" width="3.7" height="1" fill="#000"/><rect x="340.7" y="71.5" width="0.4" height="1" fill="#fff"/><rect x="327.8" y="2.1" width="5.6" height="1" fill="#000"/><rect x="113.8" y="76.5" width="6.5" height="1" fill="#fff"/><rect x="299.1" y="15.7" width="12.2" height="1" fill="#000"/><rect x="212.6" y="80.5" width="9.9" height="1" fill="#fff"/><rect x="30.9" y="100.2" width="8.8" height="1" fill="#000"/><rect x="354.7" y="11.6" width="18.0" height="1" fill="#fff"/><rect x="88.6" y="75.7" width="2.7" height="1" fill="#000"/><rect x="257.3" y="13.6" width="16.1" height="1" fill="#fff"/><rect x="189.4" y="86.2" width="1.4" height="1" fill="#000"/><rect x="61.7" y="14.6" width="11.6" height="1" fill="#fff"/><rect x="50.8" y="59.7" width="12.1" height="1" fill="#000"/><rect x="333.3" y="50.6" width="11.8" height="1" fill="#fff"/><rect x="238.0" y="32.3" width="20.1" height="1" fill="#000"/><rect x="365.5" y="49.6" width="2.0" height="1" fill="#fff"/><rect x="44.4" y="39.8" width="10.8" height="1" fill="#000"/><rect x="299.5" y="47.7" width="11.5" height="1" fill="#fff"/><rect x="35.3" y="10.3" width="13.5" height="1" fill="#000"/><rect x="276.6" y="80.7" width="3.8" height="1" fill="#fff"/><rect x="352.1" y="87.8" width="13.6" height="1" fill="#000"/><rect x="14.3" y="76.7" width="8.0" height="1" fill="#fff"/><rect x="288.0" y="92.3" width="18.3" height="1" fill="#000"/><rect x="77.9" y="71.7" width="9.6" height="1" fill="#fff"/><rect x="408.5" y="59.9" width="13.1" height="1" fill="#000"/><rect x="184.6" y="101.7" width="15.9" height="1" fill="#fff"/><rect x="6.8" y="26.4" width="5.2" height="1" fill="#000"/><rect x="51.9" y="94.8" width="12.2" height="1" fill="#fff"/><rect x="72.3" y="27.9" width="2.0" height="1" fill="#000"/><rect x="245.0" y="86.8" width="5.9" height="1" fill="#fff"/><rect x="322.4" y="100.4" width="10.9" height="1" fill="#000"/><rect x="57.2" y="5.8" width="4.2" height="1" fill="#fff"/><rect x="50.3" y="63.9" width="17.0" height="1" fill="#000"/><rect x="54.1" y="103.8" width="14.6" height="1" fill="#fff"/><rect x="245.3" y="62.4" width="5.9" height="1" fill="#000"/><rect x="376.7" y="92.8" width="0.3" height="1" fill="#fff"/><rect x="200.9" y="24.0" width="6.8" height="1" fill="#000"/><rect x="318.6" y="8.9" width="12.7" height="1" fill="#fff"/><rect x="58.3" y="92.5" width="5.0" height="1" fill="#000"/><rect x="20.9" y="103.9" width="15.1" height="1" fill="#fff"/><rect x="383.0" y="88.0" width="8.0" height="1" fill="#000"/><rect x="49.1" y="89.9" width="14.9" height="1" fill="#fff"/><rect x="44.1" y="46.5" width="0.9" height="1" fill="#000"/><rect x="120.5" y="2.9" width="19.3" height="1" fill="#fff"/><rect x="31.1" y="4.0" width="13.2" height="1" fill="#000"/><rect x="376.4" y="94.9" width="13.8" height="1" fill="#fff"/><rect x="61.3" y="104.6" width="8.2" height="1" fill="#000"/><rect x="110.2" y="77.9" width="5.6" height="1" fill="#fff"/><rect x="276.0" y="60.1" width="15.2" height="1" fill="#000"/><rect x="311.2" y="96.0" width="2.1" height="1" fill="#fff"/><rect x="392.5" y="14.6" width="19.5" height="1" fill="#000"/><rect x="272.6" y="77.0" width="10.6" height="1" fill="#fff"/><rect x="128.2" y="4.1" width="6.6" height="1" fill="#000"/><rect x="136.0" y="57.0" width="16.5" height="1" fill="#fff"/><rect x="48.5" y="64.6" width="5.6" height="1" fill="#000"/><rect x="42.5" y="72.0" width="5.1" height="1" fill="#fff"/><rect x="294.6" y="16.2" width="2.0" height="1" fill="#000"/><rect x="133.5" y="50.0" width="5.6" height="1" fill="#fff"/><rect x="159.9" y="2.7" width="3.1" height="1" fill="#000"/><rect x="126.4" y="27.1" width="3.6" height="1" fill="#fff"/><rect x="209.7" y="60.2" width="16.2" height="1" fill="#000"/><rect x="162.4" y="39.1" width="6.2" height="1" fill="#fff"/><rect x="161.3" y="8.7" width="4.7" height="1" fill="#000"/><rect x="383.0" y="14.1" width="20.8" height="1" fill="#fff"/><rect x="156.2" y="100.2" width="19.8" height="1" fill="#000"/><rect x="81.4" y="96.1" width="10.8" height="1" fill="#fff"/><rect x="335.5" y="46.8" width="3.0" height="1" fill="#000"/><rect x="247.1" y="105.1" width="5.5" height="1" fill="#fff"/><rect x="416.7" y="100.3" width="5.5" height="1" fill="#000"/><rect x="173.2" y="77.2" width="12.2" height="1" fill="#fff"/><rect x="117.1" y="80.8" width="12.7" height="1" fill="#000"/><rect x="1.2" y="48.2" width="16.2" height="1" fill="#fff"/><rect x="2.1" y="24.3" width="9.9" height="1" fill="#000"/><rect x="296.4" y="54.2" width="3.0" height="1" fill="#fff"/><rect x="212.8" y="74.8" width="4.5" height="1" fill="#000"/><rect x="352.1" y="23.2" width="1.7" height="1" fill="#fff"/><rect x="42.8" y="52.4" width="3.8" height="1" fill="#000"/><rect x="309.6" y="99.2" width="19.8" height="1" fill="#fff"/><rect x="57.2" y="100.9" width="15.0" height="1" fill="#000"/><rect x="310.3" y="102.3" width="20.6" height="1" fill="#fff"/><rect x="397.6" y="40.4" width="1.7" height="1" fill="#000"/><rect x="71.6" y="68.3" width="11.4" height="1" fill="#fff"/><rect x="357.1" y="14.9" width="15.0" height="1" fill="#000"/><rect x="158.7" y="33.3" width="21.6" height="1" fill="#fff"/><rect x="77.1" y="60.4" width="18.3" height="1" fill="#000"/><rect x="289.0" y="33.3" width="14.4" height="1" fill="#fff"/><rect x="123.0" y="105.0" width="19.0" height="1" fill="#000"/><rect x="179.8" y="104.3" width="19.3" height="1" fill="#fff"/><rect x="212.0" y="76.5" width="2.4" height="1" fill="#000"/><rect x="396.4" y="66.4" width="21.5" height="1" fill="#fff"/><rect x="61.6" y="11.0" width="19.7" height="1" fill="#000"/><rect x="232.3" y="63.4" width="6.4" height="1" fill="#fff"/><rect x="237.1" y="52.5" width="12.5" height="1" fill="#000"/><rect x="252.6" y="23.4" width="3.3" height="1" fill="#fff"/><rect x="31.7" y="21.0" width="9.9" height="1" fill="#000"/><rect x="174.9" y="90.4" width="19.5" height="1" fill="#fff"/><rect x="10.8" y="60.6" width="19.3" height="1" fill="#000"/><rect x="140.3" y="84.4" width="18.5" height="1" fill="#fff"/><rect x="315.8" y="99.1" width="4.1" height="1" fill="#000"/><rect x="290.2" y="41.5" width="7.5" height="1" fill="#fff"/><rect x="240.0" y="64.6" width="15.6" height="1" fill="#000"/><rect x="341.9" y="105.5" width="15.8" height="1" fill="#fff"/><rect x="348.7" y="101.1" width="17.1" height="1" fill="#000"/><rect x="12.9" y="96.5" width="6.8" height="1" fill="#fff"/><rect x="359.2" y="28.6" width="16.0" height="1" fill="#000"/><rect x="292.4" y="50.5" width="9.8" height="1" fill="#fff"/><rect x="413.0" y="99.1" width="19.5" height="1" fill="#000"/><rect x="49.7" y="3.5" width="10.2" height="1" fill="#fff"/><rect x="227.2" y="24.7" width="13.1" height="1" fill="#000"/><rect x="274.2" y="99.6" width="15.3" height="1" fill="#fff"/><rect x="367.3" y="57.2" width="4.0" height="1" fill="#000"/><rect x="259.2" y="50.6" width="10.3" height="1" fill="#fff"/><rect x="126.6" y="16.7" width="21.6" height="1" fill="#000"/><rect x="146.1" y="0.6" width="2.8" height="1" fill="#fff"/><rect x="70.4" y="47.2" width="7.2" height="1" fill="#000"/><rect x="76.2" y="93.6" width="21.9" height="1" fill="#fff"/><rect x="340.1" y="76.7" width="12.1" height="1" fill="#000"/><rect x="190.7" y="41.6" width="9.0" height="1" fill="#fff"/><rect x="228.9" y="33.3" width="21.8" height="1" fill="#000"/></g>
</svg>
